<mxfile host="app.diagrams.net" modified="2023-04-06T11:45:29.716Z" agent="Mozilla/5.0 (Windows NT 10.0; Win64; x64) AppleWebKit/537.36 (KHTML, like Gecko) Chrome/111.0.0.0 Safari/537.36 Edg/111.0.1661.62" etag="BvN3sL5rYuNJMRvmyHBA" version="21.1.4" type="github">
  <diagram name="第 1 页" id="fLHI8q8jEvmg70LVfnAi">
    <mxGraphModel dx="894" dy="730" grid="1" gridSize="10" guides="1" tooltips="1" connect="1" arrows="1" fold="1" page="1" pageScale="1" pageWidth="827" pageHeight="1169" math="0" shadow="0">
      <root>
        <mxCell id="0" />
        <mxCell id="1" parent="0" />
        <mxCell id="tMlSYUvqDikguycu4a48-1" value="" style="rounded=1;whiteSpace=wrap;html=1;dashed=1;fillColor=#fff2cc;strokeColor=#d6b656;arcSize=10;" parent="1" vertex="1">
          <mxGeometry x="157.5" y="80" width="520" height="200" as="geometry" />
        </mxCell>
        <mxCell id="tMlSYUvqDikguycu4a48-2" value="&lt;b style=&quot;font-size: 19px;&quot;&gt;题目：基于知识图谱的北极航道适航性评估&lt;/b&gt;" style="text;html=1;strokeColor=none;fillColor=none;align=center;verticalAlign=middle;whiteSpace=wrap;rounded=0;fontSize=19;" parent="1" vertex="1">
          <mxGeometry x="199" y="10" width="430" height="30" as="geometry" />
        </mxCell>
        <mxCell id="tMlSYUvqDikguycu4a48-3" value="&lt;b style=&quot;font-size: 19px;&quot;&gt;关键词：极地遥感 知识图谱&amp;nbsp; 北极航道 东北航道 适航性评估&lt;/b&gt;" style="text;html=1;strokeColor=none;fillColor=none;align=center;verticalAlign=middle;whiteSpace=wrap;rounded=0;fontSize=19;" parent="1" vertex="1">
          <mxGeometry x="160" y="45" width="515" height="30" as="geometry" />
        </mxCell>
        <mxCell id="tMlSYUvqDikguycu4a48-7" value="&lt;b style=&quot;font-size: 19px;&quot;&gt;引言：&lt;br&gt;1介绍北极航道与知识图谱的相关背景信息，发展历程；&lt;br&gt;2介绍北极航道目前研究的局限性，知识图谱引入后的改善&lt;/b&gt;&lt;br&gt;&lt;b&gt;3概括性得介绍文章的内容与结构框架&lt;/b&gt;" style="text;html=1;strokeColor=none;fillColor=none;align=left;verticalAlign=middle;whiteSpace=wrap;rounded=0;fontSize=19;" parent="1" vertex="1">
          <mxGeometry x="173.5" y="87" width="500" height="190" as="geometry" />
        </mxCell>
        <mxCell id="tMlSYUvqDikguycu4a48-8" value="" style="rounded=1;whiteSpace=wrap;html=1;dashed=1;fillColor=#fff2cc;strokeColor=#d6b656;arcSize=10;" parent="1" vertex="1">
          <mxGeometry x="163.5" y="300" width="520" height="200" as="geometry" />
        </mxCell>
        <mxCell id="tMlSYUvqDikguycu4a48-9" value="&lt;b style=&quot;font-size: 19px;&quot;&gt;第一章：&lt;br&gt;1介绍北极航道与知识图谱的相关背景信息，发展历程；&lt;br&gt;2介绍北极航道目前研究的局限性，知识图谱引入后的改善-&lt;/b&gt;知识图谱作为联系现实世界中实体、概念的大规模语义网络，有望更好地管理、组织、有机的结合北极航道研究中涉及到的专家先验知识、各个影响因子实体、遥感影像及相关地学知识、数据模型等;&lt;br&gt;&lt;b&gt;3概括性得介绍文章的内容与结构框架&lt;/b&gt;" style="text;html=1;strokeColor=none;fillColor=none;align=left;verticalAlign=middle;whiteSpace=wrap;rounded=0;fontSize=19;" parent="1" vertex="1">
          <mxGeometry x="179.5" y="307" width="500" height="190" as="geometry" />
        </mxCell>
      </root>
    </mxGraphModel>
  </diagram>
</mxfile>
